<?xml version="1.0" encoding="UTF-8" standalone="no"?>
<!-- Created with Inkscape (http://www.inkscape.org/) -->

<svg
   version="1.1"
   id="svg1"
   width="625.85468"
   height="93.232277"
   viewBox="0 0 625.85468 93.232277"
   sodipodi:docname="corcoran-black.svg"
   xmlns:inkscape="http://www.inkscape.org/namespaces/inkscape"
   xmlns:sodipodi="http://sodipodi.sourceforge.net/DTD/sodipodi-0.dtd"
   xmlns="http://www.w3.org/2000/svg"
   xmlns:svg="http://www.w3.org/2000/svg">
  <defs
     id="defs1" />
  <sodipodi:namedview
     id="namedview1"
     pagecolor="#ffffff"
     bordercolor="#000000"
     borderopacity="0.25"
     inkscape:showpageshadow="2"
     inkscape:pageopacity="0.0"
     inkscape:pagecheckerboard="0"
     inkscape:deskcolor="#d1d1d1">
    <inkscape:page
       x="0"
       y="-962.76721"
       inkscape:label="1"
       id="page1"
       width="816"
       height="1056"
       margin="0"
       bleed="0" />
  </sodipodi:namedview>
  <g
     id="g1"
     inkscape:groupmode="layer"
     inkscape:label="1"
     transform="translate(0,-962.7672)">
    <g
       id="group-R5">
      <path
         id="path2"
         d="M 344.855,131.078 C 287.688,55.082 220.152,0.00390625 138.613,0.00390625 50.8242,0.00390625 0,53.9102 0,140.16 c 0,211 232.57,559.086 452.813,559.086 70.851,0 93.953,-36.969 93.953,-66.23 0,-36.961 -18.485,-61.606 -55.446,-61.606 -23.105,0 -36.965,16.942 -36.965,40.043 0,21.563 16.942,30.805 16.942,44.668 0,16.938 -9.238,30.801 -27.723,30.801 -93.953,0 -166.344,-107.813 -204.847,-172.5 C 187.902,428.172 87.7891,197.141 87.7891,98.5664 c 0,-41.582 18.4809,-83.1641 67.7699,-83.1641 64.527,0 129.05,56.3008 181.324,123.9767 l 7.972,-8.301"
         style="fill:#231f20;fill-opacity:1;fill-rule:nonzero;stroke:none"
         transform="matrix(0.13333333,0,0,-0.13333333,0,1056)" />
      <path
         id="path3"
         d="M 2001.89,131.078 C 1944.72,55.082 1877.19,0.00390625 1795.66,0.00390625 c -87.8,0 -138.62,53.90629375 -138.62,140.15609375 0,211 232.57,559.086 452.81,559.086 70.85,0 93.95,-36.969 93.95,-66.23 0,-36.961 -18.48,-61.606 -55.44,-61.606 -23.11,0 -36.97,16.942 -36.97,40.043 0,21.563 16.94,30.805 16.94,44.668 0,16.938 -9.24,30.801 -27.72,30.801 -93.95,0 -166.34,-107.813 -204.85,-172.5 -50.82,-86.25 -150.93,-317.281 -150.93,-415.8556 0,-41.582 18.48,-83.1641 67.76,-83.1641 64.53,0 129.06,56.3008 181.33,123.9767 l 7.97,-8.301"
         style="fill:#231f20;fill-opacity:1;fill-rule:nonzero;stroke:none"
         transform="matrix(0.13333333,0,0,-0.13333333,0,1056)" />
      <path
         id="path4"
         d="m 920.996,690.004 c -140.156,0 -321.898,-417.395 -321.898,-569.875 0,-61.6017 23.105,-109.3438 80.093,-109.3438 137.075,0 328.059,369.6448 328.059,563.7028 0,60.071 -13.863,115.516 -86.254,115.516 z M 696.133,0.00390625 C 572.918,0.00390625 531.336,113.977 531.336,227.953 c 0,177.113 174.035,471.293 385.043,471.293 89.331,0 160.181,-63.148 160.181,-232.566 C 1076.56,284.934 911.758,0.00390625 696.133,0.00390625"
         style="fill:#231f20;fill-opacity:1;fill-rule:nonzero;stroke:none"
         transform="matrix(0.13333333,0,0,-0.13333333,0,1056)" />
      <path
         id="path5"
         d="m 1251.77,578.047 c 68.47,74.637 135.07,121.199 185.18,121.199 32.34,0 38.51,-26.187 38.51,-60.066 0,-29.266 -32.35,-123.219 -69.32,-201.77 h 3.08 c 89.34,163.262 184.83,261.836 277.24,261.836 49.28,0 84.71,-23.105 84.71,-73.93 0,-27.726 -21.56,-58.527 -50.83,-58.527 -21.56,0 -41.58,10.781 -52.36,52.363 -7.71,27.727 -29.27,36.969 -46.21,36.969 -64.68,0 -166.34,-146.316 -229.48,-274.156 C 1326.06,247.973 1259.83,93.9492 1225.94,16.9453 h -95.49 l 137.08,308.0387 c 60.07,135.532 118.59,271.071 118.59,295.711 0,13.864 -7.7,24.645 -23.1,24.645 -22.85,0 -61.09,-31.527 -103.29,-76.649 l -7.96,9.356"
         style="fill:#231f20;fill-opacity:1;fill-rule:nonzero;stroke:none"
         transform="matrix(0.13333333,0,0,-0.13333333,0,1056)" />
      <path
         id="path6"
         d="m 2908.81,578.047 c 68.47,74.637 135.07,121.199 185.18,121.199 32.34,0 38.5,-26.187 38.5,-60.066 0,-29.266 -32.34,-123.219 -69.31,-201.77 h 3.08 c 89.34,163.262 184.82,261.836 277.24,261.836 49.28,0 84.7,-23.105 84.7,-73.93 0,-27.726 -21.56,-58.527 -50.82,-58.527 -21.56,0 -41.59,10.781 -52.37,52.363 -7.69,27.727 -29.26,36.969 -46.2,36.969 -64.69,0 -166.34,-146.316 -229.49,-274.156 C 2983.1,247.973 2916.87,93.9492 2882.98,16.9453 h -95.49 l 137.07,308.0387 c 60.07,135.532 118.6,271.071 118.6,295.711 0,13.864 -7.7,24.645 -23.1,24.645 -22.85,0 -61.08,-31.527 -103.29,-76.649 l -7.96,9.356"
         style="fill:#231f20;fill-opacity:1;fill-rule:nonzero;stroke:none"
         transform="matrix(0.13333333,0,0,-0.13333333,0,1056)" />
      <path
         id="path7"
         d="m 2578.04,690.004 c -140.16,0 -321.9,-417.395 -321.9,-569.875 0,-61.6017 23.1,-109.3438 80.09,-109.3438 137.07,0 328.06,369.6448 328.06,563.7028 0,60.071 -13.87,115.516 -86.25,115.516 z M 2353.17,0.00390625 c -123.22,0 -164.8,113.97309375 -164.8,227.94909375 0,177.113 174.04,471.293 385.05,471.293 89.33,0 160.17,-63.148 160.17,-232.566 0,-181.746 -164.8,-466.67609375 -380.42,-466.67609375"
         style="fill:#231f20;fill-opacity:1;fill-rule:nonzero;stroke:none"
         transform="matrix(0.13333333,0,0,-0.13333333,0,1056)" />
      <path
         id="path8"
         d="m 3814.47,686.922 c -155.55,0 -425.08,-438.949 -425.08,-577.574 0,-56.9808 26.18,-83.1644 64.68,-83.1644 147.85,0 429.71,451.2774 429.71,588.3514 0,50.824 -26.18,72.387 -69.31,72.387 z m 94.82,-543.52 C 3828.8,49.0664 3749.68,0.00390625 3705.12,0.00390625 c -21.56,0 -38.51,12.31249375 -38.51,33.87499375 0,44.668 16.95,109.3551 73.94,237.1991 h -3.09 C 3625.03,101.652 3520.29,0.00390625 3406.33,0.00390625 c -69.32,0 -117.06,41.58199375 -117.06,112.43009375 0,187.902 312.65,586.812 534.44,586.812 52.37,0 80.09,-26.187 95.5,-64.687 l 24.64,47.746 h 87.79 C 4006.99,626.855 3874.54,351.16 3874.54,351.16 3794.45,181.742 3765.19,107.816 3765.19,81.6328 c 0,-18.4844 7.7,-23.1055 20.02,-23.1055 16.82,0 66.45,37.4922 116.71,94.9337 l 7.37,-10.059"
         style="fill:#231f20;fill-opacity:1;fill-rule:nonzero;stroke:none"
         transform="matrix(0.13333333,0,0,-0.13333333,0,1056)" />
      <path
         id="path9"
         d="M 4600.2,131.418 C 4513.74,30.5508 4458.48,0.00390625 4404.36,0.00390625 c -21.57,0 -36.97,18.47659375 -36.97,43.12499375 0,35.418 32.35,106.2691 112.44,277.2261 52.36,112.438 113.97,234.11 113.97,284.938 0,13.859 -4.63,41.586 -30.81,41.586 -78.55,0 -234.1,-180.199 -354.24,-412.774 -35.43,-69.308 -69.31,-141.6909 -97.03,-217.1597 h -90.87 c 20.02,52.3633 75.47,178.6637 129.38,301.8747 77,177.121 109.34,261.828 109.34,298.797 0,12.317 -6.15,26.18 -18.48,26.18 -19.99,0 -52.12,-25.328 -112.86,-105.559 l -8.61,6.461 c 85.32,117.239 146.58,154.547 195.4,154.547 26.18,0 38.51,-20.023 38.51,-53.906 0,-44.668 -40.04,-157.102 -123.22,-337.301 h 3.08 c 100.12,175.578 266.45,391.207 392.75,391.207 44.66,0 67.77,-21.562 67.77,-66.23 0,-47.743 -44.67,-143.239 -121.67,-304.957 -67.78,-143.231 -101.66,-214.082 -101.66,-241.8051 0,-10.7812 6.16,-23.1055 21.56,-23.1055 17.11,0 46.81,16.4727 99.85,75.5356 l 8.21,-7.266"
         style="fill:#231f20;fill-opacity:1;fill-rule:nonzero;stroke:none"
         transform="matrix(0.13333333,0,0,-0.13333333,0,1056)" />
    </g>
  </g>
</svg>
